:SAMPLES-PER-SECOND 24
:FULLY-SPECIFIED
:DEGREES
115
root  -0.329807 41.4948 25.9906 175.393 36.6189 175.551
RightUpLeg  8.6001 -3.11033 -13.2057
RightLeg  17.3002 14.7259 4.78912
RightFoot  2.97706 -1.95472 15.6366
RightToes  -1.74623e-010 0 -2.59999e-017
Spine  -2.70661 0.729415 0.314461
Spine1  15.6112 0.274794 0.695095
HEad  -15.4166 33.203 -19.4754
LeftShoulder1  1.65263 -3.12245 -18.3672
LeftArm  16.2106 18.3047 -43.5517
LeftForeArm  34.771 -58.4643 -15.2401
LeftHand  -0.486028 2.41484 18.8003
RightShoulder  3.09835 5.51871 28.3953
RightArm  6.65767 -22.7988 37.841
RightForeArm  147.877 65.2588 156.295
RightHand  -0.122655 -3.925 -8.51133
LeftUpLeg  -15.8366 18.835 5.02919
LeftLeg  23.6669 -2.83627 -1.02469
LeftFoot  9.13011 1.80341 -10.276
LeftToes  -6.27559e-011 -2.10356e-011 8.24929e-012
116
root  -0.30567 40.6149 25.7341 176.887 29.6003 175.9
RightUpLeg  11.1449 -7.03114 -13.0455
RightLeg  16.0121 15.2702 4.72022
RightFoot  -2.65539 -0.978245 12.3916
RightToes  -1.74623e-010 0 -2.59999e-017
Spine  -2.13052 0.402438 -0.0620714
Spine1  14.2653 -0.150852 0.959486
HEad  -15.3078 28.5186 -18.3404
LeftShoulder1  1.75692 -3.20177 -19.7254
LeftArm  16.8402 12.7785 -41.1386
LeftForeArm  31.9736 -56.3381 -14.1449
LeftHand  -0.44441 2.36301 16.8807
RightShoulder  3.17575 5.64857 28.7624
RightArm  7.35663 -21.2988 34.7103
RightForeArm  143.19 66.1814 154.784
RightHand  -0.150428 -4.03368 -11.4694
LeftUpLeg  -21.1275 21.9491 1.88837
LeftLeg  18.3373 -3.71771 -1.33449
LeftFoot  7.56018 1.58438 -9.78294
LeftToes  -6.27559e-011 -2.10356e-011 8.24929e-012
117
root  -0.25702 39.3291 25.3614 178.529 22.2678 177.394
RightUpLeg  16.1771 -10.3001 -11.5507
RightLeg  11.8687 8.78688 3.651
RightFoot  -12.7059 0.0572484 10.5005
RightToes  -1.74623e-010 0 -2.59999e-017
Spine  -2.38771 0.16847 1.58254
Spine1  14.6671 -0.241532 0.350792
HEad  -16.1085 22.9378 -16.5107
LeftShoulder1  1.77547 -3.16772 -20.1656
LeftArm  15.5607 7.45387 -40.533
LeftForeArm  32.2146 -55.5788 -13.6604
LeftHand  -0.380682 2.78872 16.7668
RightShoulder  3.25787 5.72831 29.368
RightArm  6.72319 -16.5459 32.9032
RightForeArm  136.969 69.3216 149.911
RightHand  -0.0779594 -4.91049 -16.9186
LeftUpLeg  -25.5977 19.8481 1.68103
LeftLeg  11.9231 1.41274 -3.80017
LeftFoot  4.89337 1.63019 -11.6461
LeftToes  -6.27559e-011 -2.10356e-011 8.24929e-012
118
root  -0.262545 38.1488 24.6583 -179.922 17.1285 178.968
RightUpLeg  19.7398 -7.30432 -7.22896
RightLeg  7.44344 -1.64155 2.70829
RightFoot  -19.1756 0.609115 10.785
RightToes  -1.74623e-010 0 -2.59999e-017
Spine  -4.58492 0.818088 4.6586
Spine1  17.1106 0.855212 -1.24929
HEad  -17.4671 17.6112 -15.2408
LeftShoulder1  1.82541 -3.17548 -20.9328
LeftArm  11.4599 6.30171 -40.7303
LeftForeArm  35.4004 -58.186 -14.9905
LeftHand  -0.26548 3.72715 18.1003
RightShoulder  3.3032 5.67618 30.0785
RightArm  6.53125 -6.66837 32.6777
RightForeArm  128.597 73.243 141.171
RightHand  0.295597 -7.04144 -21.2174
LeftUpLeg  -26.9476 10.9226 5.93416
LeftLeg  3.20616 19.7657 -7.91558
LeftFoot  1.50931 1.55571 -13.853
LeftToes  -6.27559e-011 -2.10356e-011 8.24929e-012
119
root  -0.373175 37.4303 23.4119 -179.327 13.9313 179.456
RightUpLeg  21.6472 -6.92814 -5.97589
RightLeg  7.89541 -5.52396 1.79621
RightFoot  -21.4708 0.874716 11.4839
RightToes  -1.74623e-010 0 -2.59999e-017
Spine  -6.79311 2.36158 6.12654
Spine1  18.3487 2.56465 -1.8327
HEad  -16.4827 13.1058 -14.1296
LeftShoulder1  1.98601 -3.24547 -23.1564
LeftArm  7.40322 11.4921 -40.6208
LeftForeArm  37.3864 -62.2787 -17.9137
LeftHand  -0.243139 4.02732 20.1781
RightShoulder  3.45872 5.76684 31.422
RightArm  7.38626 4.23809 33.6108
RightForeArm  122.76 75.3216 134.278
RightHand  0.321474 -7.143 -21.8209
LeftUpLeg  -25.849 6.11339 5.3396
LeftLeg  -6.17794 34.4955 -10.851
LeftFoot  1.66005 1.16222 -10.2685
LeftToes  -6.27559e-011 -2.10356e-011 8.24929e-012
